#!OML:ASF I:\salsa\salsa 7_09\Patient 1\Session 1\dancermale.ASF
:FULLY-SPECIFIED
:DEGREES
1385
root 3.49694 17.2066 -2.18382 1092.96 -17.5343 -363.258
lowerback -4.20591 1.47186 7.93797
upperback -1.38185 1.64468 -1.00285
thorax 1.17952 0.825584 -5.41496
lowerneck -12.5545 -10.3562 7.96397
upperneck 9.40418 -55.0647 -11.666
head 365.011 -99.5154 -511.56
rclavicle 7.05686e-015 5.96354e-015
rhumerus -43.5759 22.2598 -105.534
rradius 101.08
rwrist 11.2366
rhand -57.5493 16.3804
rfingers 7.12502
rthumb -29.8158 -11.24
lclavicle 7.05686e-015 5.96354e-015
lhumerus -17.6924 -47.9563 112.399
lradius 81.8552
lwrist -4.19953
lhand -28.6585 41.013
lfingers 7.12502
lthumb -2.02193 1150.98
rfemur -24.2983 11.1028 17.8004
rtibia 34.68
rfoot -24.9117 6.24731
rtoes -14.9746
lfemur -39.838 -5.60699 -12.1979
ltibia 27.6933
lfoot -10.3728 -5.2525
ltoes -18.8827
1386
root 3.41774 17.2529 -2.38619 1093.81 -15.3213 -363.989
lowerback -4.60982 1.9939 8.2073
upperback -1.34994 2.28424 -0.598202
thorax 1.53004 1.16001 -5.08926
lowerneck -12.82 -11.1258 8.27605
upperneck 9.18692 -55.1899 -11.5768
head 367.881 -100.807 -514.354
rclavicle 6.95746e-016 1.18277e-014
rhumerus -46.4665 22.7652 -106.658
rradius 103.181
rwrist 14.3536
rhand -60.1084 19.2013
rfingers 7.12502
rthumb -32.255 -7.95319
lclavicle 6.95746e-016 1.18277e-014
lhumerus -19.1637 -48.9769 113.455
lradius 84.0813
lwrist -4.69695
lhand -27.4314 40.0612
lfingers 7.12502
lthumb -0.836756 1150.04
rfemur -25.2493 11.6531 19.1256
rtibia 34.2417
rfoot -24.1165 3.98891
rtoes -14.2319
lfemur -40.8706 -3.46843 -12.2985
ltibia 31.6408
lfoot -11.6712 -1.55391
ltoes -16.6047
1387
root 3.33537 17.2944 -2.58137 1094.39 -12.9102 -364.448
lowerback -4.70047 2.33795 8.08657
upperback -1.47021 2.73731 -0.17146
thorax 1.49707 1.37996 -4.54177
lowerneck -13.0914 -11.9285 8.48125
upperneck 9.20743 -55.6184 -11.7585
head 370.326 -102.139 -516.497
rclavicle -2.47627e-015 5.97596e-015
rhumerus -49.4201 23.1501 -107.904
rradius 105.059
rwrist 17.2175
rhand -62.1202 22.6078
rfingers 7.12502
rthumb -34.1679 -4.13858
lclavicle -2.47627e-015 5.97596e-015
lhumerus -20.9754 -49.8974 114.743
lradius 86.1582
lwrist -5.33929
lhand -26.527 39.3881
lfingers 7.12502
lthumb 0.0367284 1149.37
rfemur -26.1275 11.9124 20.1539
rtibia 34.0649
rfoot -23.4694 1.98252
rtoes -11.8206
lfemur -41.7942 -1.6785 -12.6108
ltibia 36.2765
lfoot -12.3207 1.56664
ltoes -11.7775
1388
root 3.25173 17.3351 -2.76377 1094.72 -10.1657 -364.803
lowerback -4.62502 2.57201 7.92551
upperback -1.64394 3.06542 0.226304
thorax 1.29012 1.53037 -4.02118
lowerneck -13.3272 -12.8226 8.61376
upperneck 9.56154 -56.4655 -12.2597
head 372.267 -103.558 -517.94
rclavicle -1.38901e-014 2.48481e-015
rhumerus -52.0118 22.9904 -109.09
rradius 106.845
rwrist 19.3657
rhand -63.1425 27.3046
rfingers 7.12502
rthumb -35.1381 0.780906
lclavicle -1.38901e-014 2.48481e-015
lhumerus -23.1634 -50.9844 116.263
lradius 88.1453
lwrist -5.68121
lhand -26.7938 39.1025
lfingers 7.12502
lthumb -0.220948 1149.08
rfemur -26.496 11.7195 21.1504
rtibia 33.4496
rfoot -22.8439 -0.0842215
rtoes -9.80337
lfemur -42.5908 -0.232469 -12.888
ltibia 41.1006
lfoot -12.6136 4.09905
ltoes -7.04617
1389
root 3.16634 17.3729 -2.93325 1094.86 -7.08542 -365.105
lowerback -4.61083 2.70522 7.75668
upperback -1.72593 3.25104 0.61679
thorax 1.18951 1.61743 -3.51187
lowerneck -13.7593 -13.6736 8.71648
upperneck 9.69782 -57.0872 -12.445
head 373.012 -104.243 -518.463
rclavicle -3.40419e-014 -5.36719e-015
rhumerus -53.8761 22.2222 -110.037
rradius 108.572
rwrist 21.183
rhand -63.637 31.2217
rfingers 7.12502
rthumb -35.607 4.80956
lclavicle -3.40419e-014 -5.36719e-015
lhumerus -25.4168 -52.1473 117.715
lradius 90.094
lwrist -5.76609
lhand -26.8389 38.2902
lfingers 7.12502
lthumb -0.26448 1148.27
rfemur -26.2038 11.3856 22.1603
rtibia 32.0506
rfoot -22.2606 -2.55949
rtoes -8.99309
lfemur -43.2285 0.936481 -13.078
ltibia 45.9572
lfoot -12.359 5.82979
ltoes -1.60978
1390
root 3.08923 17.407 -3.08302 1094.74 -3.64129 -365.399
lowerback -4.64919 2.59912 7.68546
upperback -1.74543 3.10503 1.11792
thorax 1.14217 1.5431 -2.96321
lowerneck -14.1434 -14.4455 8.62603
upperneck 9.80722 -57.5961 -12.6577
head 373.649 -104.707 -518.875
rclavicle -2.18663e-015 9.14409e-015
rhumerus -55.3892 21.4668 -110.791
rradius 110.244
rwrist 22.8428
rhand -63.7619 34.0678
rfingers 7.12502
rthumb -35.7253 7.68427
lclavicle -2.18663e-015 9.14409e-015
lhumerus -27.6848 -52.9529 118.996
lradius 92.0484
lwrist -5.76513
lhand -26.1869 37.4284
lfingers 7.12502
lthumb 0.365221 1147.41
rfemur -25.2652 10.9837 23.1862
rtibia 30.0464
rfoot -21.6874 -5.25041
rtoes -8.58055
lfemur -43.4414 1.89203 -13.1323
ltibia 50.4243
lfoot -11.7337 7.60478
ltoes 3.553
1391
root 3.02124 17.4347 -3.22618 1094.55 -0.324064 -365.595
lowerback -4.6747 2.43255 7.44884
upperback -1.78936 2.8891 1.67377
thorax 1.04798 1.43294 -2.27338
lowerneck -14.47 -15.1512 8.35752
upperneck 9.86041 -57.9532 -12.8476
head 374.147 -104.827 -519.2
rclavicle 1.42131e-014 -7.95139e-016
rhumerus -56.7251 20.9199 -111.466
rradius 111.726
rwrist 24.6945
rhand -64.453 34.841
rfingers 7.12502
rthumb -36.3799 8.61879
lclavicle 1.42131e-014 -7.95139e-016
lhumerus -29.9903 -53.5491 120.214
lradius 94.0341
lwrist -5.43584
lhand -25.6501 37.0433
lfingers 7.12502
lthumb 0.883653 1147.02
rfemur -24.4525 10.8524 23.9663
rtibia 28.2702
rfoot -21.0169 -7.96775
rtoes -8.44247
lfemur -43.2822 3.38056 -13.2436
ltibia 54.3198
lfoot -11.2045 9.14055
ltoes 8.03606
1392
root 2.95842 17.4559 -3.35813 1094.4 2.95297 -365.629
lowerback -4.89155 2.25057 7.08706
upperback -1.80068 2.64109 2.09811
thorax 1.09879 1.31289 -1.64398
lowerneck -14.8307 -15.8159 8.21819
upperneck 9.8787 -58.282 -12.9094
head 374.292 -104.757 -519.287
rclavicle 1.6847e-014 -5.48646e-014
rhumerus -57.5198 20.1406 -111.829
rradius 112.753
rwrist 25.9924
rhand -66.7592 55.4015
rfingers 7.12502
rthumb -38.5597 29.7568
lclavicle 1.6847e-014 -5.48646e-014
lhumerus -32.2956 -54.1001 121.223
lradius 96.0138
lwrist -4.83043
lhand -25.393 36.6108
lfingers 7.12502
lthumb 1.13203 1146.59
rfemur -24.0258 10.5939 24.4667
rtibia 27.0247
rfoot -20.5617 -10.4909
rtoes -7.73208
lfemur -42.7914 5.21064 -13.3846
ltibia 57.4984
lfoot -10.9195 10.4651
ltoes 11.5108
1393
root 2.9039 17.4704 -3.46958 1094.16 6.52602 -365.568
lowerback -5.33258 1.93042 6.81605
upperback -1.71345 2.18069 2.40984
thorax 1.37663 1.0945 -1.1866
lowerneck -15.3751 -16.5461 8.26483
upperneck 10.1192 -58.9944 -13.1842
head 374.699 -105.182 -519.374
rclavicle 1.80894e-014 -6.36111e-015
rhumerus -58.3949 19.7737 -112.878
rradius 113.943
rwrist 28.1345
rhand -68.545 47.8079
rfingers 7.12502
rthumb -40.242 22.6553
lclavicle 1.80894e-014 -6.36111e-015
lhumerus -34.504 -54.4878 121.803
lradius 98.1964
lwrist -3.8207
lhand -25.255 36.6022
lfingers 7.12502
lthumb 1.26526 1146.58
rfemur -23.5501 9.82678 24.8798
rtibia 25.9541
rfoot -20.4057 -12.7122
rtoes -5.59286
lfemur -41.9024 6.71677 -13.303
ltibia 60.0505
lfoot -11.0226 11.6384
ltoes 15.4995
